<svg width="20" height="20" viewBox="0 0 20 20" fill="none" xmlns="http://www.w3.org/2000/svg">
<rect width="20" height="20" fill="#7B7B7B"/>
<g id="Trang ch&#225;&#187;&#167;" clip-path="url(#clip0_439_1954)">
<rect width="430" height="6599" transform="translate(-384 -72)" fill="#F0FDF4"/>
<g id="Frame 14190">
<g id="Frame 14194">
<g id="Frame 14193">
<g id="Frame 14192">
<g id="Frame 1926">
<g id="Icon">
<rect x="-10" y="-10" width="40" height="40" rx="20" fill="#115B12"/>
<path id="Vector" d="M13.8949 6.10515C13.8949 7.13813 13.4845 8.12882 12.7541 8.8592C12.0237 9.58968 11.033 10 10 10C8.967 10 7.97635 9.58968 7.24592 8.8592C6.5155 8.12882 6.10515 7.13813 6.10515 6.10515M1.85315 5.52226L1.17155 13.7015C1.02513 15.4585 0.951912 16.3371 1.24892 17.0148C1.50988 17.6103 1.96202 18.1017 2.53374 18.4111C3.18446 18.7634 4.06605 18.7634 5.82923 18.7634H14.1708C15.9339 18.7634 16.8155 18.7634 17.4663 18.4111C18.038 18.1017 18.4901 17.6103 18.7511 17.0148C19.048 16.3371 18.9748 15.4585 18.8285 13.7015L18.1469 5.52226C18.0209 4.01045 17.9579 3.25453 17.6231 2.68241C17.3283 2.17859 16.8892 1.77465 16.3627 1.52271C15.7648 1.23658 15.0063 1.23658 13.4892 1.23658H6.51083C4.99377 1.23658 4.23525 1.23658 3.63728 1.5227C3.11072 1.77465 2.67173 2.17859 2.37691 2.68241C2.04213 3.25453 1.97913 4.01045 1.85315 5.52226Z" stroke="white" stroke-width="2" stroke-linecap="round" stroke-linejoin="round"/>
</g>
</g>
</g>
</g>
</g>
</g>
</g>
<defs>
<clipPath id="clip0_439_1954">
<rect width="430" height="6599" fill="white" transform="translate(-384 -72)"/>
</clipPath>
</defs>
</svg>
